<?xml version="1.0" encoding="UTF-8" standalone="no" ?>
<!DOCTYPE svg PUBLIC "-//W3C//DTD SVG 1.1//EN" "http://www.w3.org/Graphics/SVG/1.1/DTD/svg11.dtd">
<svg xmlns="http://www.w3.org/2000/svg" xmlns:xlink="http://www.w3.org/1999/xlink" version="1.1" width="500" height="500" viewBox="0 0 500 500" xml:space="preserve">
<desc>Created with Fabric.js 3.6.3</desc>
<defs>
</defs>
<g transform="matrix(1 0 0 1 254.27620688204016 296.25942285192093)" style=""  ><path fill="#545454" opacity="1" d="M-138.26 9.80L-143.36 9.80L-153.76-4.75L-153.76 17.39L-163.73 17.39L-163.73-19.70L-153.76-19.70L-140.81-0.71L-127.86-19.70L-117.90-19.70L-117.90 17.39L-127.86 17.39L-127.86-4.75L-138.26 9.80Z"/><path fill="#545454" opacity="1" d="M-110.70 0.28L-110.70-2.59Q-110.70-6.36-109.76-9.68Q-108.82-13.00-106.47-15.46Q-104.11-17.93-100.13-19.36Q-96.14-20.80-90.11-20.80L-90.11-20.80L-88.12-20.80Q-82.08-20.80-78.10-19.36Q-74.11-17.93-71.76-15.46Q-69.41-13.00-68.47-9.68Q-67.53-6.36-67.53-2.59L-67.53-2.59L-67.53 0.28Q-67.53 4.05-68.47 7.37Q-69.41 10.69-71.76 13.15Q-74.11 15.62-78.10 17.06Q-82.08 18.49-88.12 18.49L-88.12 18.49L-90.11 18.49Q-96.14 18.49-100.13 17.06Q-104.11 15.62-106.47 13.15Q-108.82 10.69-109.76 7.37Q-110.70 4.05-110.70 0.28L-110.70 0.28ZM-100.74-1.15L-100.74-1.15Q-100.74 0.95-100.54 2.91Q-100.35 4.88-99.27 6.37Q-98.19 7.87-95.84 8.75Q-93.49 9.64-89.11 9.64L-89.11 9.64Q-84.74 9.64-82.39 8.75Q-80.04 7.87-78.96 6.37Q-77.88 4.88-77.68 2.91Q-77.49 0.95-77.49-1.15L-77.49-1.15Q-77.49-3.26-77.68-5.20Q-77.88-7.13-78.96-8.63Q-80.04-10.12-82.39-11.01Q-84.74-11.89-89.11-11.89L-89.11-11.89Q-93.49-11.89-95.84-11.01Q-98.19-10.12-99.27-8.63Q-100.35-7.13-100.54-5.20Q-100.74-3.26-100.74-1.15Z"/><path fill="#545454" opacity="1" d="M-60.33-19.70L-50.37-19.70L-50.37-5.31L-31.00-5.31L-31.00-19.70L-21.03-19.70L-21.03 17.39L-31.00 17.39L-31.00 3.55L-50.37 3.55L-50.37 17.39L-60.33 17.39L-60.33-19.70Z"/><path fill="#545454" opacity="1" d="M-13.84 0.28L-13.84-2.59Q-13.84-6.36-12.90-9.68Q-11.96-13.00-9.60-15.46Q-7.25-17.93-3.27-19.36Q0.72-20.80 6.75-20.80L6.75-20.80L8.75-20.80Q14.78-20.80 18.76-19.36Q22.75-17.93 25.10-15.46Q27.45-13.00 28.39-9.68Q29.34-6.36 29.34-2.59L29.34-2.59L29.34 0.28Q29.34 4.05 28.39 7.37Q27.45 10.69 25.10 13.15Q22.75 15.62 18.76 17.06Q14.78 18.49 8.75 18.49L8.75 18.49L6.75 18.49Q0.72 18.49-3.27 17.06Q-7.25 15.62-9.60 13.15Q-11.96 10.69-12.90 7.37Q-13.84 4.05-13.84 0.28L-13.84 0.28ZM-3.87-1.15L-3.87-1.15Q-3.87 0.95-3.68 2.91Q-3.49 4.88-2.41 6.37Q-1.33 7.87 1.02 8.75Q3.38 9.64 7.75 9.64L7.75 9.64Q12.12 9.64 14.47 8.75Q16.83 7.87 17.91 6.37Q18.99 4.88 19.18 2.91Q19.37 0.95 19.37-1.15L19.37-1.15Q19.37-3.26 19.18-5.20Q18.99-7.13 17.91-8.63Q16.83-10.12 14.47-11.01Q12.12-11.89 7.75-11.89L7.75-11.89Q3.38-11.89 1.02-11.01Q-1.33-10.12-2.41-8.63Q-3.49-7.13-3.68-5.20Q-3.87-3.26-3.87-1.15Z"/><path fill="#545454" opacity="1" d="M36.92 9.20L36.92 9.20Q39.13 9.20 39.88 8.14Q40.63 7.09 40.74 5.04L40.74 5.04L41.84-19.70L75.61-19.70L75.61 17.39L65.65 17.39L65.65-10.84L51.14-10.84L50.42 6.15Q50.26 9.09 49.62 11.30Q48.98 13.51 47.63 15.01Q46.27 16.50 44.09 17.28Q41.90 18.05 38.69 18.05L38.69 18.05Q37.42 18.05 36.14 17.94Q34.87 17.83 33.87 17.50L33.87 17.50L33.87 9.03Q34.54 9.14 35.42 9.17Q36.31 9.20 36.92 9.20Z"/><path fill="#545454" opacity="1" d="M93.32 4.10L112.75-19.70L122.71-19.70L122.71 17.39L112.75 17.39L112.75-6.41L93.32 17.39L83.36 17.39L83.36-19.70L93.32-19.70L93.32 4.10Z"/><path fill="#545454" opacity="1" d="M152.05 17.39L142.08 17.39L142.08-10.84L127.69-10.84L127.69-19.70L166.49-19.70L166.49-10.84L152.05-10.84L152.05 17.39Z"/></g><g transform="matrix(1.5058953702146354 0 0 1.5058953702146354 254.02620688204013 181.59237981524478)"  >
<path style="stroke: none; stroke-width: 0; stroke-dasharray: none; stroke-linecap: butt; stroke-dashoffset: 0; stroke-linejoin: miter; stroke-miterlimit: 4; fill: rgb(72,72,72); fill-rule: evenodd; opacity: 1;"  transform=" translate(-49.997869113360025, -53.122753)" d="m 50.047 6.25 c -1.5078 -0.011719 -2.9688 0.52734 -4.1133 1.5156 l -43.539 37.41 c -1.6445 1.3516 -2.3516 2.9688 -2.3906 4.5547 c -0.046875 1.5859 0.58984 3.1445 1.6211 4.3438 c 1.1875 1.3789 2.8594 2.1719 4.6758 2.1719 c 1.3477 0 2.7773 -0.38672 4.125 -1.5977 l 2.0781 -1.7812 v 40.883 c 0 3.4609 2.7891 6.25 6.25 6.25 h 62.492 c 3.4609 0 6.25 -2.7891 6.25 -6.25 v -31.254 c 0 -3.4531 -2.7969 -6.25 -6.25 -6.25 s -6.25 2.7969 -6.25 6.25 v 25 l -49.996 0.003906 v -45.348 l 25 -21.438 l 39.57 33.934 c 1.3359 1.1992 2.7422 1.5859 4.0781 1.5977 c 1.832 0.019531 3.5273 -0.78125 4.7227 -2.1719 c 1.0312 -1.2031 1.6641 -2.7578 1.6211 -4.3438 c -0.046876 -1.5859 -0.75781 -3.2031 -2.4062 -4.5547 l -16.344 -14.051 l 0.003906 -12.379 c 0 -3.4609 -2.7891 -6.25 -6.25 -6.25 c -3.4609 0 -6.25 2.7891 -6.25 6.25 v 1.6367 l -14.684 -12.621 c -1.1211 -0.96094 -2.5391 -1.5 -4.0156 -1.5156 z" stroke-linecap="round" />
</g>
<g transform="matrix(1 0 0 1 245.44063119807853 345.5989749505132)" style=""  ><path fill="#000000" opacity="1" d=""/><path fill="#000000" opacity="1" d="M-163.27 3.74L-165.56 3.74L-165.56 3.30L-164.08 2.96L-162.58 0.42L-165.52-4.50L-166.62-4.75L-166.62-5.19L-163.24-5.19L-163.24-4.75L-164.07-4.52L-161.86-0.70L-159.73-4.48L-160.69-4.76L-160.69-5.19L-157.78-5.19L-157.78-4.76L-158.76-4.47L-163.27 3.74Z"/><path fill="#000000" opacity="1" d="M-151.55 1.88L-151.11 1.88L-151.11 3.29Q-151.74 3.86-153.04 3.86Q-154.34 3.86-155.16 3.07Q-155.99 2.29-155.99 0.88Q-155.99-0.52-155.14-1.34Q-154.29-2.15-152.97-2.15L-152.97-2.15Q-152.42-2.15-151.91-2.02Q-151.40-1.88-151.14-1.64L-151.14-1.64L-151.14-0.16L-151.58-0.16L-151.97-1.46Q-152.30-1.71-153.08-1.71Q-153.85-1.71-154.31-1.05Q-154.77-0.38-154.77 0.89L-154.77 0.89Q-154.77 3.41-152.93 3.41L-152.93 3.41Q-152.33 3.41-151.97 3.24L-151.97 3.24L-151.55 1.88Z"/><path fill="#000000" opacity="1" d="M-141.76 3.74L-144.66 3.74L-144.66 3.30L-143.83 3.04L-143.83-1.59L-146.66-1.59L-146.66 3.04L-145.80 3.30L-145.80 3.74L-148.71 3.74L-148.71 3.30L-147.79 3.05L-147.79-1.33L-148.71-1.59L-148.71-2.02L-141.76-2.02L-141.76-1.59L-142.70-1.33L-142.70 3.05L-141.76 3.30L-141.76 3.74Z"/><path fill="#000000" opacity="1" d="M-134.84 1.73L-134.40 1.73L-134.40 3.08Q-135.08 3.86-136.59 3.86Q-138.09 3.86-138.82 3.07Q-139.55 2.27-139.55 0.87Q-139.55-0.53-138.78-1.34Q-138.01-2.14-136.71-2.14L-136.71-2.14Q-135.94-2.14-135.42-1.85Q-134.90-1.57-134.68-1.09L-134.68-1.09Q-134.32-0.31-134.32 0.56L-134.32 0.56L-138.36 0.56Q-138.36 1.91-138.05 2.61L-138.05 2.61Q-137.69 3.41-136.64 3.41L-136.64 3.41Q-136.27 3.41-135.93 3.30Q-135.59 3.20-135.44 3.11Q-135.29 3.01-135.29 2.99L-135.29 2.99L-134.84 1.73ZM-136.74-1.68L-136.74-1.68Q-137.75-1.68-138.12-0.75L-138.12-0.75Q-138.30-0.33-138.33 0.17L-138.33 0.17L-135.36 0.17Q-135.36-1.68-136.74-1.68Z"/><path fill="#000000" opacity="1" d="M-132.10-1.59L-132.10-2.03L-129.07-2.03L-129.07-1.59L-129.80-1.45L-128.63 0.24L-127.26-1.46L-128.04-1.59L-128.04-2.03L-125.68-2.03L-125.68-1.59L-126.54-1.44L-128.32 0.60L-126.47 3.10L-125.55 3.29L-125.55 3.74L-128.57 3.74L-128.57 3.29L-127.81 3.10L-129.04 1.32L-130.42 3.12L-129.64 3.29L-129.64 3.74L-132.08 3.74L-132.08 3.29L-131.17 3.10L-129.38 0.97L-131.16-1.44L-132.10-1.59Z"/><path fill="#000000" opacity="1" d=""/><path fill="#000000" opacity="1" d="M-111.53 3.74L-114.44 3.74L-114.44 3.30L-113.63 3.04L-113.63 1.04L-116.45 1.04L-116.45 3.04L-115.58 3.30L-115.58 3.74L-118.48 3.74L-118.48 3.30L-117.57 3.05L-117.57-1.33L-118.48-1.59L-118.48-2.03L-115.58-2.03L-115.58-1.59L-116.45-1.32L-116.45 0.61L-113.63 0.61L-113.63-1.33L-114.44-1.59L-114.44-2.03L-111.53-2.03L-111.53-1.59L-112.51-1.33L-112.51 3.04L-111.53 3.30L-111.53 3.74Z"/><path fill="#000000" opacity="1" d="M-103.30 3.30L-103.30 3.74L-105.39 3.74L-105.39 2.54Q-105.95 3.85-107.36 3.85L-107.36 3.85Q-108.30 3.85-108.78 3.43Q-109.27 3.02-109.27 2.29L-109.27 2.29Q-109.27 1.24-108.35 0.78Q-107.43 0.32-105.42 0.29L-105.42 0.29L-105.42-0.22Q-105.42-1.07-105.76-1.37Q-106.11-1.68-106.78-1.68Q-107.46-1.68-107.96-1.37L-107.96-1.37L-108.36-0.19L-108.80-0.19L-108.80-1.53Q-108.50-1.78-107.97-1.96Q-107.45-2.13-106.83-2.13L-106.83-2.13Q-105.57-2.13-104.93-1.65Q-104.30-1.16-104.30 0.06L-104.30 0.06L-104.30 3.02L-103.30 3.30ZM-107.05 3.35L-107.05 3.35Q-106.28 3.35-105.85 2.76Q-105.42 2.17-105.42 0.70L-105.42 0.70Q-107.46 0.70-107.92 1.33L-107.92 1.33Q-108.13 1.63-108.13 2.22Q-108.13 2.80-107.87 3.07Q-107.62 3.35-107.05 3.35Z"/><path fill="#000000" opacity="1" d="M-94.79 3.74L-97.81 3.74L-97.81 3.30L-96.88 3.04L-96.88-0.01Q-97.09 0.78-97.65 1.18Q-98.20 1.58-99.03 1.58Q-99.86 1.58-100.36 1.06Q-100.87 0.54-100.87-0.51L-100.87-0.51L-100.87-1.31L-101.74-1.56L-101.74-2.00L-98.72-2.00L-98.72-1.56L-99.74-1.27L-99.74-0.41Q-99.74 0.42-99.47 0.78Q-99.19 1.13-98.65 1.13L-98.65 1.13Q-97.11 1.13-96.91-1.30L-96.91-1.30L-97.81-1.56L-97.81-2.00L-94.79-2.00L-94.79-1.56L-95.77-1.30L-95.77 3.04L-94.79 3.30L-94.79 3.74Z"/><path fill="#000000" opacity="1" d="M-85.36 3.74L-88.33 3.74L-88.33 3.30L-87.46 3.04L-87.46-1.16L-90.42 3.74L-92.43 3.74L-92.43 3.30L-91.52 3.05L-91.52-1.33L-92.43-1.59L-92.43-2.03L-89.48-2.03L-89.48-1.59L-90.40-1.32L-90.40 2.87L-87.46-2.03L-85.36-2.03L-85.36-1.59L-86.34-1.33L-86.34 3.04L-85.36 3.30L-85.36 3.74Z"/><path fill="#000000" opacity="1" d="M-76.05 3.74L-78.95 3.74L-78.95 3.30L-78.14 3.04L-78.14 1.04L-80.96 1.04L-80.96 3.04L-80.09 3.30L-80.09 3.74L-83.00 3.74L-83.00 3.30L-82.08 3.05L-82.08-1.33L-83.00-1.59L-83.00-2.03L-80.09-2.03L-80.09-1.59L-80.96-1.32L-80.96 0.61L-78.14 0.61L-78.14-1.33L-78.95-1.59L-78.95-2.03L-76.05-2.03L-76.05-1.59L-77.02-1.33L-77.02 3.04L-76.05 3.30L-76.05 3.74Z"/><path fill="#000000" opacity="1" d="M-67.81 3.30L-67.81 3.74L-69.91 3.74L-69.91 2.54Q-70.47 3.85-71.87 3.85L-71.87 3.85Q-72.81 3.85-73.30 3.43Q-73.79 3.02-73.79 2.29L-73.79 2.29Q-73.79 1.24-72.86 0.78Q-71.94 0.32-69.93 0.29L-69.93 0.29L-69.93-0.22Q-69.93-1.07-70.28-1.37Q-70.62-1.68-71.30-1.68Q-71.98-1.68-72.48-1.37L-72.48-1.37L-72.87-0.19L-73.31-0.19L-73.31-1.53Q-73.01-1.78-72.49-1.96Q-71.97-2.13-71.35-2.13L-71.35-2.13Q-70.09-2.13-69.45-1.65Q-68.81-1.16-68.81 0.06L-68.81 0.06L-68.81 3.02L-67.81 3.30ZM-71.56 3.35L-71.56 3.35Q-70.80 3.35-70.36 2.76Q-69.93 2.17-69.93 0.70L-69.93 0.70Q-71.98 0.70-72.43 1.33L-72.43 1.33Q-72.64 1.63-72.64 2.22Q-72.64 2.80-72.39 3.07Q-72.13 3.35-71.56 3.35Z"/><path fill="#000000" opacity="1" d="M-61.23 1.73L-60.79 1.73L-60.79 3.08Q-61.47 3.86-62.97 3.86Q-64.48 3.86-65.21 3.07Q-65.93 2.27-65.93 0.87Q-65.93-0.53-65.16-1.34Q-64.40-2.14-63.10-2.14L-63.10-2.14Q-62.33-2.14-61.81-1.85Q-61.29-1.57-61.06-1.09L-61.06-1.09Q-60.71-0.31-60.71 0.56L-60.71 0.56L-64.74 0.56Q-64.74 1.91-64.43 2.61L-64.43 2.61Q-64.08 3.41-63.03 3.41L-63.03 3.41Q-62.66 3.41-62.32 3.30Q-61.98 3.20-61.83 3.11Q-61.67 3.01-61.67 2.99L-61.67 2.99L-61.23 1.73ZM-63.12-1.68L-63.12-1.68Q-64.14-1.68-64.50-0.75L-64.50-0.75Q-64.68-0.33-64.72 0.17L-64.72 0.17L-61.74 0.17Q-61.74-1.68-63.12-1.68Z"/><path fill="#000000" opacity="1" d="M-54.34 3.74L-57.36 3.74L-57.36 3.30L-56.41 3.04L-56.41-1.56L-57.97-1.56L-58.27-0.46L-58.71-0.46L-58.71-1.99L-53.00-1.99L-53.00-0.46L-53.44-0.46L-53.73-1.56L-55.29-1.56L-55.29 3.05L-54.34 3.30L-54.34 3.74Z"/><path fill="#000000" opacity="1" d="M-46.64 1.88L-46.20 1.88L-46.20 3.29Q-46.83 3.86-48.13 3.86Q-49.43 3.86-50.25 3.07Q-51.08 2.29-51.08 0.88Q-51.08-0.52-50.23-1.34Q-49.38-2.15-48.06-2.15L-48.06-2.15Q-47.51-2.15-47.00-2.02Q-46.49-1.88-46.23-1.64L-46.23-1.64L-46.23-0.16L-46.67-0.16L-47.06-1.46Q-47.39-1.71-48.17-1.71Q-48.94-1.71-49.40-1.05Q-49.86-0.38-49.86 0.89L-49.86 0.89Q-49.86 3.41-48.02 3.41L-48.02 3.41Q-47.42 3.41-47.06 3.24L-47.06 3.24L-46.64 1.88Z"/><path fill="#000000" opacity="1" d="M-37.99 3.30L-37.99 3.74L-40.91 3.74L-40.91 3.30L-39.99 3.01L-39.99 1.10L-40.20 1.10L-42.19 3.74L-43.92 3.74L-43.92 3.30L-42.83 3.01L-41.16 1.10L-41.79 1.10Q-42.44 1.10-42.86 0.63Q-43.29 0.16-43.29-0.45Q-43.29-1.06-42.86-1.52Q-42.44-1.99-41.79-1.99L-41.79-1.99L-37.99-1.99L-37.99-1.55L-38.86-1.31L-38.86 3.05L-37.99 3.30ZM-41.10 0.67L-41.10 0.67L-39.99 0.67L-39.99-1.56L-41.10-1.56Q-41.55-1.56-41.86-1.22Q-42.17-0.89-42.17-0.45Q-42.17-0.01-41.86 0.33Q-41.55 0.67-41.10 0.67Z"/><path fill="#000000" opacity="1" d=""/><path fill="#000000" opacity="1" d="M-26.60 1.88L-26.16 1.88L-26.16 3.29Q-26.79 3.86-28.09 3.86Q-29.39 3.86-30.21 3.07Q-31.04 2.29-31.04 0.88Q-31.04-0.52-30.19-1.34Q-29.34-2.15-28.02-2.15L-28.02-2.15Q-27.47-2.15-26.96-2.02Q-26.45-1.88-26.19-1.64L-26.19-1.64L-26.19-0.16L-26.63-0.16L-27.02-1.46Q-27.35-1.71-28.13-1.71Q-28.90-1.71-29.36-1.05Q-29.82-0.38-29.82 0.89L-29.82 0.89Q-29.82 3.41-27.98 3.41L-27.98 3.41Q-27.38 3.41-27.02 3.24L-27.02 3.24L-26.60 1.88Z"/><path fill="#000000" opacity="1" d=""/><path fill="#000000" opacity="1" d="M-12.04 3.74L-14.94 3.74L-14.94 3.30L-14.11 3.04L-14.11-1.59L-16.94-1.59L-16.94 3.04L-16.08 3.30L-16.08 3.74L-18.99 3.74L-18.99 3.30L-18.07 3.05L-18.07-1.33L-18.99-1.59L-18.99-2.02L-12.04-2.02L-12.04-1.59L-12.98-1.33L-12.98 3.05L-12.04 3.30L-12.04 3.74Z"/><path fill="#000000" opacity="1" d="M-9.76-1.62L-9.76-2.03L-7.84-2.03L-7.84-0.57Q-7.29-2.13-5.80-2.13L-5.80-2.13Q-4.67-2.13-3.99-1.34Q-3.30-0.56-3.30 0.86Q-3.30 2.29-3.99 3.08Q-4.67 3.87-5.79 3.87L-5.79 3.87Q-7.23 3.87-7.76 2.45L-7.76 2.45L-7.76 6.78L-6.90 7.05L-6.90 7.49L-9.79 7.49L-9.79 7.05L-8.90 6.78L-8.90-1.46L-9.76-1.62ZM-5.97-1.60L-5.97-1.60Q-6.74-1.60-7.25-0.95Q-7.75-0.30-7.75 0.82Q-7.75 1.93-7.26 2.64Q-6.78 3.35-5.97 3.35L-5.97 3.35Q-4.52 3.35-4.52 0.87Q-4.52-1.60-5.97-1.60Z"/><path fill="#000000" opacity="1" d="M4.78 3.30L4.78 3.74L2.68 3.74L2.68 2.54Q2.12 3.85 0.72 3.85L0.72 3.85Q-0.22 3.85-0.71 3.43Q-1.20 3.02-1.20 2.29L-1.20 2.29Q-1.20 1.24-0.27 0.78Q0.65 0.32 2.66 0.29L2.66 0.29L2.66-0.22Q2.66-1.07 2.31-1.37Q1.97-1.68 1.29-1.68Q0.61-1.68 0.11-1.37L0.11-1.37L-0.28-0.19L-0.72-0.19L-0.72-1.53Q-0.42-1.78 0.10-1.96Q0.62-2.13 1.24-2.13L1.24-2.13Q2.50-2.13 3.14-1.65Q3.78-1.16 3.78 0.06L3.78 0.06L3.78 3.02L4.78 3.30ZM1.03 3.35L1.03 3.35Q1.79 3.35 2.23 2.76Q2.66 2.17 2.66 0.70L2.66 0.70Q0.61 0.70 0.16 1.33L0.16 1.33Q-0.05 1.63-0.05 2.22Q-0.05 2.80 0.20 3.07Q0.46 3.35 1.03 3.35Z"/><path fill="#000000" opacity="1" d="M11.22 3.74L6.78 3.74L6.78 3.30L7.69 3.05L7.69-1.33L6.78-1.59L6.78-2.03L10.86-2.03Q11.50-2.03 11.94-1.56Q12.37-1.09 12.37-0.53L12.37-0.53Q12.37 0.25 11.67 0.61L11.67 0.61L11.44 0.69L11.80 0.85Q12.26 1.01 12.50 1.37Q12.73 1.73 12.73 2.26Q12.73 2.79 12.31 3.26Q11.89 3.74 11.22 3.74L11.22 3.74ZM10.51 0.95L10.51 0.95L8.81 0.95L8.81 3.32L10.51 3.32Q11.03 3.32 11.31 2.98Q11.60 2.63 11.60 2.16Q11.60 1.68 11.31 1.32Q11.01 0.95 10.51 0.95ZM10.35-1.62L8.81-1.62L8.81 0.45L10.60 0.45Q11.01 0.41 11.23 0.14Q11.44-0.13 11.44-0.53Q11.44-0.93 11.13-1.27Q10.82-1.62 10.35-1.62L10.35-1.62Z"/><path fill="#000000" opacity="1" d="M22.13 3.74L19.16 3.74L19.16 3.30L20.03 3.04L20.03-1.16L17.07 3.74L15.06 3.74L15.06 3.30L15.98 3.05L15.98-1.33L15.06-1.59L15.06-2.03L18.01-2.03L18.01-1.59L17.09-1.32L17.09 2.87L20.03-2.03L22.13-2.03L22.13-1.59L21.15-1.33L21.15 3.04L22.13 3.30L22.13 3.74Z"/><path fill="#000000" opacity="1" d="M25.56 3.74L24.09 3.74L24.09 3.29L24.98 3.08L27.11-2.05L27.82-2.05L29.92 3.08L30.85 3.29L30.85 3.73L27.83 3.73L27.83 3.29L28.65 3.08L27.17-1.05L25.56 3.74Z"/><path fill="#000000" opacity="1" d="M32.77-1.55L32.77-1.99L35.79-1.99L35.79-1.55L34.77-1.26L34.77 0.66L36.62 0.66Q37.34 0.66 37.73 1.11Q38.12 1.57 38.12 2.20Q38.12 2.83 37.73 3.29Q37.34 3.74 36.62 3.74L36.62 3.74L32.77 3.74L32.77 3.30L33.64 3.06L33.64-1.30L32.77-1.55ZM35.93 1.08L35.93 1.08L34.77 1.08L34.77 3.31L35.93 3.31Q36.44 3.31 36.72 2.98Q37.00 2.66 37.00 2.20Q37.00 1.75 36.72 1.42Q36.43 1.08 35.93 1.08Z"/><path fill="#000000" opacity="1" d="M47.14 3.74L44.24 3.74L44.24 3.30L45.05 3.04L45.05 1.04L42.23 1.04L42.23 3.04L43.10 3.30L43.10 3.74L40.19 3.74L40.19 3.30L41.11 3.05L41.11-1.33L40.19-1.59L40.19-2.03L43.10-2.03L43.10-1.59L42.23-1.32L42.23 0.61L45.05 0.61L45.05-1.33L44.24-1.59L44.24-2.03L47.14-2.03L47.14-1.59L46.17-1.33L46.17 3.04L47.14 3.30L47.14 3.74Z"/><path fill="#000000" opacity="1" d="M53.82 0.89Q53.82-0.39 53.43-1.02Q53.03-1.64 52.15-1.64Q51.26-1.64 50.84-1.04Q50.41-0.44 50.41 0.88Q50.41 2.20 50.83 2.78Q51.25 3.36 52.11 3.36Q52.97 3.36 53.40 2.77Q53.82 2.18 53.82 0.89ZM49.21 0.89Q49.21-0.51 50.01-1.33Q50.81-2.14 52.12-2.14Q53.44-2.14 54.22-1.34Q55.01-0.55 55.01 0.88Q55.01 2.31 54.22 3.08Q53.44 3.85 52.11 3.85Q50.78 3.85 50.00 3.07Q49.21 2.30 49.21 0.89Z"/><path fill="#000000" opacity="1" d="M57.20-1.59L57.20-2.02L62.05-2.02L62.05-0.45L61.62-0.45L61.31-1.59L59.22-1.59L59.22 3.04L60.18 3.30L60.18 3.74L57.16 3.74L57.16 3.30L58.09 3.04L58.09-1.34L57.20-1.59Z"/><path fill="#000000" opacity="1" d="M68.48 0.89Q68.48-0.39 68.09-1.02Q67.69-1.64 66.81-1.64Q65.92-1.64 65.50-1.04Q65.08-0.44 65.08 0.88Q65.08 2.20 65.49 2.78Q65.91 3.36 66.77 3.36Q67.63 3.36 68.06 2.77Q68.48 2.18 68.48 0.89ZM63.87 0.89Q63.87-0.51 64.67-1.33Q65.47-2.14 66.78-2.14Q68.10-2.14 68.88-1.34Q69.67-0.55 69.67 0.88Q69.67 2.31 68.88 3.08Q68.10 3.85 66.77 3.85Q65.44 3.85 64.66 3.07Q63.87 2.30 63.87 0.89Z"/><path fill="#000000" opacity="1" d=""/><path fill="#000000" opacity="1" d="M83.62 3.74L80.71 3.74L80.71 3.30L81.54 3.04L81.54-1.59L78.71-1.59L78.71 3.04L79.57 3.30L79.57 3.74L76.67 3.74L76.67 3.30L77.58 3.05L77.58-1.33L76.67-1.59L76.67-2.02L83.62-2.02L83.62-1.59L82.68-1.33L82.68 3.05L83.62 3.30L83.62 3.74Z"/><path fill="#000000" opacity="1" d="M85.89-1.62L85.89-2.03L87.82-2.03L87.82-0.57Q88.36-2.13 89.85-2.13L89.85-2.13Q90.98-2.13 91.67-1.34Q92.35-0.56 92.35 0.86Q92.35 2.29 91.67 3.08Q90.98 3.87 89.86 3.87L89.86 3.87Q88.42 3.87 87.89 2.45L87.89 2.45L87.89 6.78L88.76 7.05L88.76 7.49L85.86 7.49L85.86 7.05L86.76 6.78L86.76-1.46L85.89-1.62ZM89.68-1.60L89.68-1.60Q88.91-1.60 88.41-0.95Q87.90-0.30 87.90 0.82Q87.90 1.93 88.39 2.64Q88.88 3.35 89.68 3.35L89.68 3.35Q91.14 3.35 91.14 0.87Q91.14-1.60 89.68-1.60Z"/><path fill="#000000" opacity="1" d="M99.01 0.89Q99.01-0.39 98.62-1.02Q98.23-1.64 97.34-1.64Q96.46-1.64 96.03-1.04Q95.61-0.44 95.61 0.88Q95.61 2.20 96.03 2.78Q96.44 3.36 97.31 3.36Q98.17 3.36 98.59 2.77Q99.01 2.18 99.01 0.89ZM94.41 0.89Q94.41-0.51 95.21-1.33Q96.00-2.14 97.32-2.14Q98.63-2.14 99.42-1.34Q100.20-0.55 100.20 0.88Q100.20 2.31 99.42 3.08Q98.63 3.85 97.31 3.85Q95.98 3.85 95.19 3.07Q94.41 2.30 94.41 0.89Z"/><path fill="#000000" opacity="1" d="M106.70 1.88L107.14 1.88L107.14 3.29Q106.51 3.86 105.21 3.86Q103.92 3.86 103.09 3.07Q102.26 2.29 102.26 0.88Q102.26-0.52 103.11-1.34Q103.96-2.15 105.29-2.15L105.29-2.15Q105.83-2.15 106.34-2.02Q106.86-1.88 107.12-1.64L107.12-1.64L107.12-0.16L106.68-0.16L106.28-1.46Q105.95-1.71 105.18-1.71Q104.40-1.71 103.95-1.05Q103.49-0.38 103.49 0.89L103.49 0.89Q103.49 3.41 105.32 3.41L105.32 3.41Q105.93 3.41 106.28 3.24L106.28 3.24L106.70 1.88Z"/><path fill="#000000" opacity="1" d="M113.64 3.74L110.62 3.74L110.62 3.30L111.57 3.04L111.57-1.56L110.01-1.56L109.71-0.46L109.27-0.46L109.27-1.99L114.98-1.99L114.98-0.46L114.54-0.46L114.25-1.56L112.69-1.56L112.69 3.05L113.64 3.30L113.64 3.74Z"/><path fill="#000000" opacity="1" d="M116.98-1.62L116.98-2.03L118.91-2.03L118.91-0.57Q119.46-2.13 120.95-2.13L120.95-2.13Q122.08-2.13 122.76-1.34Q123.44-0.56 123.44 0.86Q123.44 2.29 122.76 3.08Q122.08 3.87 120.96 3.87L120.96 3.87Q119.52 3.87 118.98 2.45L118.98 2.45L118.98 6.78L119.85 7.05L119.85 7.49L116.96 7.49L116.96 7.05L117.85 6.78L117.85-1.46L116.98-1.62ZM120.78-1.60L120.78-1.60Q120.01-1.60 119.50-0.95Q118.99-0.30 118.99 0.82Q118.99 1.93 119.48 2.64Q119.97 3.35 120.78 3.35L120.78 3.35Q122.23 3.35 122.23 0.87Q122.23-1.60 120.78-1.60Z"/><path fill="#000000" opacity="1" d="M131.52 3.30L131.52 3.74L129.43 3.74L129.43 2.54Q128.87 3.85 127.47 3.85L127.47 3.85Q126.53 3.85 126.04 3.43Q125.55 3.02 125.55 2.29L125.55 2.29Q125.55 1.24 126.47 0.78Q127.40 0.32 129.41 0.29L129.41 0.29L129.41-0.22Q129.41-1.07 129.06-1.37Q128.72-1.68 128.04-1.68Q127.36-1.68 126.86-1.37L126.86-1.37L126.47-0.19L126.03-0.19L126.03-1.53Q126.32-1.78 126.85-1.96Q127.37-2.13 127.99-2.13L127.99-2.13Q129.25-2.13 129.89-1.65Q130.53-1.16 130.53 0.06L130.53 0.06L130.53 3.02L131.52 3.30ZM127.78 3.35L127.78 3.35Q128.54 3.35 128.97 2.76Q129.41 2.17 129.41 0.70L129.41 0.70Q127.36 0.70 126.91 1.33L126.91 1.33Q126.69 1.63 126.69 2.22Q126.69 2.80 126.95 3.07Q127.21 3.35 127.78 3.35Z"/><path fill="#000000" opacity="1" d="M140.50 3.74L137.59 3.74L137.59 3.30L138.40 3.04L138.40 1.04L135.58 1.04L135.58 3.04L136.45 3.30L136.45 3.74L133.55 3.74L133.55 3.30L134.46 3.05L134.46-1.33L133.55-1.59L133.55-2.03L136.45-2.03L136.45-1.59L135.58-1.32L135.58 0.61L138.40 0.61L138.40-1.33L137.59-1.59L137.59-2.03L140.50-2.03L140.50-1.59L139.52-1.33L139.52 3.04L140.50 3.30L140.50 3.74Z"/><path fill="#000000" opacity="1" d="M147.11 1.88L147.55 1.88L147.55 3.29Q146.92 3.86 145.63 3.86Q144.33 3.86 143.50 3.07Q142.68 2.29 142.68 0.88Q142.68-0.52 143.53-1.34Q144.38-2.15 145.70-2.15L145.70-2.15Q146.25-2.15 146.76-2.02Q147.27-1.88 147.53-1.64L147.53-1.64L147.53-0.16L147.09-0.16L146.70-1.46Q146.36-1.71 145.59-1.71Q144.82-1.71 144.36-1.05Q143.90-0.38 143.90 0.89L143.90 0.89Q143.90 3.41 145.73 3.41L145.73 3.41Q146.34 3.41 146.70 3.24L146.70 3.24L147.11 1.88Z"/><path fill="#000000" opacity="1" d="M154.05 3.74L151.03 3.74L151.03 3.30L151.98 3.04L151.98-1.56L150.42-1.56L150.12-0.46L149.68-0.46L149.68-1.99L155.40-1.99L155.40-0.46L154.96-0.46L154.66-1.56L153.10-1.56L153.10 3.05L154.05 3.30L154.05 3.74Z"/><path fill="#000000" opacity="1" d="M161.89 3.74L157.45 3.74L157.45 3.30L158.37 3.05L158.37-1.33L157.45-1.59L157.45-2.03L161.54-2.03Q162.18-2.03 162.61-1.56Q163.05-1.09 163.05-0.53L163.05-0.53Q163.05 0.25 162.35 0.61L162.35 0.61L162.12 0.69L162.48 0.85Q162.94 1.01 163.17 1.37Q163.40 1.73 163.40 2.26Q163.40 2.79 162.99 3.26Q162.57 3.74 161.89 3.74L161.89 3.74ZM161.19 0.95L161.19 0.95L159.49 0.95L159.49 3.32L161.19 3.32Q161.70 3.32 161.99 2.98Q162.27 2.63 162.27 2.16Q162.27 1.68 161.98 1.32Q161.69 0.95 161.19 0.95ZM161.02-1.62L159.49-1.62L159.49 0.45L161.27 0.45Q161.69 0.41 161.91 0.14Q162.12-0.13 162.12-0.53Q162.12-0.93 161.81-1.27Q161.50-1.62 161.02-1.62L161.02-1.62Z"/><path fill="#000000" opacity="1" d="M171.62 3.30L171.62 3.74L169.52 3.74L169.52 2.54Q168.96 3.85 167.56 3.85L167.56 3.85Q166.62 3.85 166.13 3.43Q165.64 3.02 165.64 2.29L165.64 2.29Q165.64 1.24 166.56 0.78Q167.49 0.32 169.50 0.29L169.50 0.29L169.50-0.22Q169.50-1.07 169.15-1.37Q168.81-1.68 168.13-1.68Q167.45-1.68 166.95-1.37L166.95-1.37L166.56-0.19L166.12-0.19L166.12-1.53Q166.42-1.78 166.94-1.96Q167.46-2.13 168.08-2.13L168.08-2.13Q169.34-2.13 169.98-1.65Q170.62-1.16 170.62 0.06L170.62 0.06L170.62 3.02L171.62 3.30ZM167.87 3.35L167.87 3.35Q168.63 3.35 169.06 2.76Q169.50 2.17 169.50 0.70L169.50 0.70Q167.45 0.70 167.00 1.33L167.00 1.33Q166.78 1.63 166.78 2.22Q166.78 2.80 167.04 3.07Q167.30 3.35 167.87 3.35Z"/></g></svg>