<?xml version="1.0" encoding="UTF-8" standalone="no" ?>
<!DOCTYPE svg PUBLIC "-//W3C//DTD SVG 1.1//EN" "http://www.w3.org/Graphics/SVG/1.1/DTD/svg11.dtd">
<svg xmlns="http://www.w3.org/2000/svg" xmlns:xlink="http://www.w3.org/1999/xlink" version="1.1" width="500" height="500" viewBox="0 0 500 500" xml:space="preserve">
<desc>Created with Fabric.js 3.6.3</desc>
<defs>
</defs>
<g transform="matrix(1 0 0 1 250.52238288669426 305.7359318528804)" style=""  ><path fill="#545454" opacity="1" d="M-175.48 12.44L-181.95 12.44L-195.15-6.03L-195.15 22.07L-207.80 22.07L-207.80-25.00L-195.15-25.00L-178.72-0.90L-162.28-25.00L-149.63-25.00L-149.63 22.07L-162.28 22.07L-162.28-6.03L-175.48 12.44Z"/><path fill="#545454" opacity="1" d="M-140.50 0.36L-140.50-3.29Q-140.50-8.07-139.31-12.28Q-138.11-16.50-135.13-19.63Q-132.14-22.75-127.08-24.58Q-122.02-26.40-114.37-26.40L-114.37-26.40L-111.84-26.40Q-104.18-26.40-99.12-24.58Q-94.06-22.75-91.08-19.63Q-88.09-16.50-86.90-12.28Q-85.70-8.07-85.70-3.29L-85.70-3.29L-85.70 0.36Q-85.70 5.14-86.90 9.35Q-88.09 13.57-91.08 16.69Q-94.06 19.82-99.12 21.65Q-104.18 23.47-111.84 23.47L-111.84 23.47L-114.37 23.47Q-122.02 23.47-127.08 21.65Q-132.14 19.82-135.13 16.69Q-138.11 13.57-139.31 9.35Q-140.50 5.14-140.50 0.36L-140.50 0.36ZM-127.86-1.47L-127.86-1.47Q-127.86 1.20-127.61 3.70Q-127.36 6.19-125.99 8.09Q-124.62 9.99-121.64 11.11Q-118.65 12.23-113.10 12.23L-113.10 12.23Q-107.55 12.23-104.57 11.11Q-101.58 9.99-100.21 8.09Q-98.84 6.19-98.60 3.70Q-98.35 1.20-98.35-1.47L-98.35-1.47Q-98.35-4.13-98.60-6.59Q-98.84-9.05-100.21-10.95Q-101.58-12.85-104.57-13.97Q-107.55-15.09-113.10-15.09L-113.10-15.09Q-118.65-15.09-121.64-13.97Q-124.62-12.85-125.99-10.95Q-127.36-9.05-127.61-6.59Q-127.86-4.13-127.86-1.47Z"/><path fill="#545454" opacity="1" d="M-76.57-25.00L-63.93-25.00L-63.93-6.73L-39.34-6.73L-39.34-25.00L-26.70-25.00L-26.70 22.07L-39.34 22.07L-39.34 4.51L-63.93 4.51L-63.93 22.07L-76.57 22.07L-76.57-25.00Z"/><path fill="#545454" opacity="1" d="M-17.56 0.36L-17.56-3.29Q-17.56-8.07-16.37-12.28Q-15.17-16.50-12.19-19.63Q-9.20-22.75-4.14-24.58Q0.91-26.40 8.57-26.40L8.57-26.40L11.10-26.40Q18.76-26.40 23.81-24.58Q28.87-22.75 31.86-19.63Q34.84-16.50 36.04-12.28Q37.23-8.07 37.23-3.29L37.23-3.29L37.23 0.36Q37.23 5.14 36.04 9.35Q34.84 13.57 31.86 16.69Q28.87 19.82 23.81 21.65Q18.76 23.47 11.10 23.47L11.10 23.47L8.57 23.47Q0.91 23.47-4.14 21.65Q-9.20 19.82-12.19 16.69Q-15.17 13.57-16.37 9.35Q-17.56 5.14-17.56 0.36L-17.56 0.36ZM-4.92-1.47L-4.92-1.47Q-4.92 1.20-4.67 3.70Q-4.43 6.19-3.06 8.09Q-1.69 9.99 1.30 11.11Q4.29 12.23 9.83 12.23L9.83 12.23Q15.38 12.23 18.37 11.11Q21.36 9.99 22.73 8.09Q24.10 6.19 24.34 3.70Q24.59 1.20 24.59-1.47L24.59-1.47Q24.59-4.13 24.34-6.59Q24.10-9.05 22.73-10.95Q21.36-12.85 18.37-13.97Q15.38-15.09 9.83-15.09L9.83-15.09Q4.29-15.09 1.30-13.97Q-1.69-12.85-3.06-10.95Q-4.43-9.05-4.67-6.59Q-4.92-4.13-4.92-1.47Z"/><path fill="#545454" opacity="1" d="M46.86 11.67L46.86 11.67Q49.67 11.67 50.62 10.34Q51.56 9.00 51.70 6.40L51.70 6.40L53.11-25.00L95.96-25.00L95.96 22.07L83.32 22.07L83.32-13.76L64.91-13.76L64.00 7.81Q63.79 11.53 62.98 14.34Q62.17 17.15 60.45 19.05Q58.73 20.94 55.95 21.93Q53.18 22.91 49.10 22.91L49.10 22.91Q47.49 22.91 45.87 22.77Q44.26 22.63 42.99 22.21L42.99 22.21L42.99 11.46Q43.84 11.60 44.96 11.64Q46.08 11.67 46.86 11.67Z"/><path fill="#545454" opacity="1" d="M118.44 5.21L143.10-25.00L155.74-25.00L155.74 22.07L143.10 22.07L143.10-8.14L118.44 22.07L105.80 22.07L105.80-25.00L118.44-25.00L118.44 5.21Z"/><path fill="#545454" opacity="1" d="M192.98 22.07L180.33 22.07L180.33-13.76L162.07-13.76L162.07-25.00L211.31-25.00L211.31-13.76L192.98-13.76L192.98 22.07Z"/></g><g transform="matrix(1.6523267618825672 0 0 1.6523267618825672 250.34721879891217 166.45669497415525)"  >
<path style="stroke: none; stroke-width: 0; stroke-dasharray: none; stroke-linecap: butt; stroke-dashoffset: 0; stroke-linejoin: miter; stroke-miterlimit: 4; fill: rgb(84,84,84); fill-rule: evenodd; opacity: 1;"  transform=" translate(-49.997869113360025, -53.122753)" d="m 50.047 6.25 c -1.5078 -0.011719 -2.9688 0.52734 -4.1133 1.5156 l -43.539 37.41 c -1.6445 1.3516 -2.3516 2.9688 -2.3906 4.5547 c -0.046875 1.5859 0.58984 3.1445 1.6211 4.3438 c 1.1875 1.3789 2.8594 2.1719 4.6758 2.1719 c 1.3477 0 2.7773 -0.38672 4.125 -1.5977 l 2.0781 -1.7812 v 40.883 c 0 3.4609 2.7891 6.25 6.25 6.25 h 62.492 c 3.4609 0 6.25 -2.7891 6.25 -6.25 v -31.254 c 0 -3.4531 -2.7969 -6.25 -6.25 -6.25 s -6.25 2.7969 -6.25 6.25 v 25 l -49.996 0.003906 v -45.348 l 25 -21.438 l 39.57 33.934 c 1.3359 1.1992 2.7422 1.5859 4.0781 1.5977 c 1.832 0.019531 3.5273 -0.78125 4.7227 -2.1719 c 1.0312 -1.2031 1.6641 -2.7578 1.6211 -4.3438 c -0.046876 -1.5859 -0.75781 -3.2031 -2.4062 -4.5547 l -16.344 -14.051 l 0.003906 -12.379 c 0 -3.4609 -2.7891 -6.25 -6.25 -6.25 c -3.4609 0 -6.25 2.7891 -6.25 6.25 v 1.6367 l -14.684 -12.621 c -1.1211 -0.96094 -2.5391 -1.5 -4.0156 -1.5156 z" stroke-linecap="round" />
</g>
<g transform="matrix(1 0 0 1 244.80981788647392 359.3167249505132)" style=""  ><path fill="#000000" opacity="1" d=""/><path fill="#000000" opacity="1" d="M-198.06-7.13L-198.06-7.13L-194.90 0.53L-194.37 1.89L-193.90 0.51L-191.11-7.13Q-190.99-7.43-190.92-7.56Q-190.85-7.69-190.61-7.79Q-190.38-7.89-189.98-7.89L-189.98-7.89Q-189.10-7.89-189.41-7.13L-189.41-7.13L-193.50 3.63Q-194.21 5.37-194.90 5.98Q-195.58 6.58-197.02 6.46L-197.02 6.46Q-197.79 6.46-197.77 5.67L-197.77 5.67Q-197.75 5.29-197.62 5.12Q-197.49 4.94-197.08 4.98L-197.08 4.98Q-196.44 5.05-196.02 4.83Q-195.60 4.62-195.49 4.42Q-195.38 4.21-195.20 3.77L-195.20 3.77L-199.86-7.13Q-200.04-7.53-199.80-7.71Q-199.55-7.89-199.13-7.89L-199.13-7.89Q-198.93-7.89-198.77-7.86Q-198.62-7.83-198.54-7.81Q-198.46-7.79-198.37-7.69Q-198.28-7.59-198.26-7.55Q-198.24-7.51-198.16-7.35Q-198.08-7.19-198.06-7.13Z"/><path fill="#000000" opacity="1" d="M-189.43 1.14L-189.43 1.14Q-189.43-4.33-184.95-4.33L-184.95-4.33Q-184.02-4.33-183.31-4.03Q-182.60-3.72-182.20-3.23Q-181.79-2.73-181.58-2.26Q-181.37-1.78-181.29-1.31L-181.29-1.31Q-181.17-0.54-181.88-0.46L-181.88-0.46Q-182.64-0.42-182.79-1.03L-182.79-1.03Q-183.27-3.05-184.95-3.05L-184.95-3.05Q-185.78-3.05-186.36-2.68Q-186.94-2.31-187.22-1.65Q-187.50-0.99-187.63-0.32Q-187.75 0.35-187.75 1.14Q-187.75 1.93-187.63 2.59Q-187.50 3.26-187.22 3.92Q-186.94 4.58-186.36 4.95Q-185.78 5.33-184.95 5.33L-184.95 5.33Q-183.27 5.33-182.79 3.30L-182.79 3.30Q-182.64 2.68-181.88 2.74L-181.88 2.74Q-181.49 2.76-181.36 2.96Q-181.23 3.16-181.29 3.59L-181.29 3.59Q-181.37 4.05-181.58 4.52Q-181.79 4.98-182.20 5.47Q-182.60 5.96-183.31 6.26Q-184.02 6.56-184.95 6.56L-184.95 6.56Q-189.43 6.56-189.43 1.14Z"/><path fill="#000000" opacity="1" d="M-177.66-4.13L-173.11-4.13Q-172.56-4.13-172.22-3.99Q-171.87-3.84-171.74-3.52Q-171.61-3.20-171.58-2.95Q-171.55-2.71-171.55-2.24L-171.55-2.24L-171.55 5.86Q-171.55 6.56-172.34 6.56Q-173.13 6.56-173.13 5.86L-173.13 5.86L-173.13-2.35Q-173.13-2.61-173.24-2.73Q-173.35-2.85-173.67-2.85L-173.67-2.85L-177.10-2.85Q-177.42-2.85-177.52-2.73Q-177.62-2.61-177.62-2.35L-177.62-2.35L-177.62 5.86Q-177.62 6.56-178.41 6.56Q-179.20 6.56-179.20 5.86L-179.20 5.86L-179.20-2.24Q-179.20-2.71-179.17-2.94Q-179.14-3.18-179.01-3.51Q-178.88-3.84-178.54-3.99Q-178.21-4.13-177.66-4.13L-177.66-4.13Z"/><path fill="#000000" opacity="1" d="M-162.23-0.44L-162.23-0.44Q-162.27-1.72-162.95-2.45Q-163.63-3.18-164.80-3.18L-164.80-3.18Q-166.06-3.18-166.86-2.18Q-167.66-1.19-167.70 0.04L-167.70 0.04L-162.66 0.04Q-162.21 0.00-162.23-0.44ZM-160.82 3.77L-160.82 3.77Q-161.14 5.13-162.27 5.89Q-163.41 6.64-164.85 6.64L-164.85 6.64Q-166.38 6.64-167.47 5.86Q-168.55 5.07-169.03 3.85Q-169.50 2.64-169.50 1.16L-169.50 1.16Q-169.50-1.21-168.35-2.81Q-167.19-4.41-164.87-4.41L-164.87-4.41Q-162.94-4.41-161.80-3.23Q-160.65-2.04-160.69-0.14L-160.69-0.14Q-160.69 0.53-161.01 0.89Q-161.32 1.26-162.35 1.26L-162.35 1.26L-167.74 1.26Q-167.72 2.98-167.02 4.13Q-166.32 5.29-164.76 5.29L-164.76 5.29Q-163.89 5.29-163.23 4.81Q-162.56 4.34-162.29 3.49L-162.29 3.49Q-162.21 3.22-161.96 3.07Q-161.71 2.92-161.40 2.96L-161.40 2.96Q-161.08 3.00-160.91 3.21Q-160.73 3.43-160.82 3.77Z"/><path fill="#000000" opacity="1" d="M-152.47-3.64L-152.47-3.64L-155.23 0.75L-152.01 5.88Q-151.78 6.24-152.00 6.40Q-152.21 6.56-152.65 6.56L-152.65 6.56Q-153.04 6.56-153.24 6.47Q-153.44 6.38-153.67 6.02L-153.67 6.02L-156.10 1.91L-158.53 6.02Q-158.75 6.38-158.95 6.47Q-159.15 6.56-159.54 6.56L-159.54 6.56Q-160.05 6.56-160.21 6.36Q-160.37 6.16-160.11 5.75L-160.11 5.75L-156.97 0.75L-159.68-3.56Q-159.88-3.97-159.71-4.15Q-159.54-4.33-159.07-4.33L-159.07-4.33Q-158.79-4.33-158.66-4.31Q-158.53-4.29-158.37-4.17Q-158.20-4.05-158.06-3.80L-158.06-3.80L-156.10-0.40L-154.13-3.80Q-153.93-4.17-153.73-4.25Q-153.53-4.33-153.12-4.33L-153.12-4.33Q-152.67-4.33-152.46-4.17Q-152.25-4.01-152.47-3.64Z"/><path fill="#000000" opacity="1" d=""/><path fill="#000000" opacity="1" d="M-142.41-3.64L-142.41-3.64L-142.41 0.21L-137.93 0.21L-137.93-3.64Q-137.93-4.33-137.14-4.33Q-136.35-4.33-136.35-3.64L-136.35-3.64L-136.35 5.86Q-136.35 6.56-137.14 6.56Q-137.93 6.56-137.93 5.86L-137.93 5.86L-137.93 1.48L-142.41 1.48L-142.41 5.86Q-142.41 6.56-143.20 6.56Q-143.99 6.56-143.99 5.86L-143.99 5.86L-143.99-3.64Q-143.99-4.33-143.20-4.33Q-142.41-4.33-142.41-3.64Z"/><path fill="#000000" opacity="1" d="M-127.54 5.83L-127.54 5.83Q-127.67 5.23-127.67 4.48L-127.67 4.48Q-128.70 6.64-131.23 6.64L-131.23 6.64Q-132.67 6.64-133.60 5.80Q-134.53 4.96-134.53 3.47L-134.53 3.47Q-134.53-0.18-129.00-0.18L-129.00-0.18Q-128.88-0.18-127.67-0.14L-127.67-0.14Q-127.67-1.37-127.85-1.94L-127.85-1.94Q-128.25-3.16-130.24-3.16L-130.24-3.16Q-131.49-3.16-132.49-2.39L-132.49-2.39Q-132.99-1.96-133.54-2.41L-133.54-2.41Q-134.09-2.89-133.44-3.46L-133.44-3.46Q-132.30-4.41-129.99-4.41L-129.99-4.41Q-127.93-4.41-127.03-3.36Q-126.13-2.31-126.13-0.14L-126.13-0.14L-126.13 4.32Q-126.13 5.09-126.05 5.63L-126.05 5.63Q-125.94 6.30-126.61 6.42L-126.61 6.42Q-127.42 6.52-127.54 5.83ZM-127.67 1.08L-127.67 1.08Q-128.64 1.02-129.12 1.02L-129.12 1.02Q-130.06 1.02-130.82 1.19Q-131.57 1.36-132.20 1.96Q-132.83 2.55-132.83 3.53L-132.83 3.53Q-132.83 4.44-132.29 4.91Q-131.76 5.39-130.91 5.39L-130.91 5.39Q-129.47 5.39-128.56 4.32L-128.56 4.32Q-127.52 3.12-127.67 1.08Z"/><path fill="#000000" opacity="1" d="M-116.93-3.64L-116.93-3.64L-116.93 5.86Q-116.93 6.56-117.72 6.56Q-118.51 6.56-118.51 5.86L-118.51 5.86L-118.51 1.87Q-119.34 2.76-121.00 2.76L-121.00 2.76Q-124.20 2.76-124.20-0.24L-124.20-0.24L-124.20-3.64Q-124.20-4.33-123.41-4.33Q-122.62-4.33-122.62-3.64L-122.62-3.64L-122.62-0.73Q-122.62 0.53-122.24 1.05Q-121.85 1.56-120.86 1.56L-120.86 1.56Q-119.69 1.56-119.10 1.03Q-118.51 0.49-118.51-0.32L-118.51-0.32L-118.51-3.64Q-118.51-4.33-117.72-4.33Q-116.93-4.33-116.93-3.64Z"/><path fill="#000000" opacity="1" d="M-106.34-3.64L-106.34-3.64L-106.34 5.86Q-106.34 6.56-107.13 6.56Q-107.92 6.56-107.92 5.86L-107.92 5.86L-107.92-1.72Q-108.06-1.35-108.79-0.14L-108.79-0.14L-112.80 6.24Q-112.98 6.56-113.51 6.56L-113.51 6.56Q-114.30 6.56-114.30 5.86L-114.30 5.86L-114.30-3.64Q-114.30-4.33-113.51-4.33L-113.51-4.33Q-112.70-4.33-112.70-3.64L-112.70-3.64L-112.70 3.99Q-112.42 3.32-111.77 2.27L-111.77 2.27L-107.82-4.05Q-107.64-4.33-107.13-4.33L-107.13-4.33Q-106.34-4.33-106.34-3.64Z"/><path fill="#000000" opacity="1" d="M-102.13-3.64L-102.13-3.64L-102.13 0.21L-97.66 0.21L-97.66-3.64Q-97.66-4.33-96.87-4.33Q-96.08-4.33-96.08-3.64L-96.08-3.64L-96.08 5.86Q-96.08 6.56-96.87 6.56Q-97.66 6.56-97.66 5.86L-97.66 5.86L-97.66 1.48L-102.13 1.48L-102.13 5.86Q-102.13 6.56-102.92 6.56Q-103.71 6.56-103.71 5.86L-103.71 5.86L-103.71-3.64Q-103.71-4.33-102.92-4.33Q-102.13-4.33-102.13-3.64Z"/><path fill="#000000" opacity="1" d="M-87.27 5.83L-87.27 5.83Q-87.39 5.23-87.39 4.48L-87.39 4.48Q-88.42 6.64-90.95 6.64L-90.95 6.64Q-92.39 6.64-93.32 5.80Q-94.25 4.96-94.25 3.47L-94.25 3.47Q-94.25-0.18-88.73-0.18L-88.73-0.18Q-88.60-0.18-87.39-0.14L-87.39-0.14Q-87.39-1.37-87.57-1.94L-87.57-1.94Q-87.98-3.16-89.96-3.16L-89.96-3.16Q-91.22-3.16-92.21-2.39L-92.21-2.39Q-92.71-1.96-93.26-2.41L-93.26-2.41Q-93.81-2.89-93.16-3.46L-93.16-3.46Q-92.03-4.41-89.72-4.41L-89.72-4.41Q-87.65-4.41-86.75-3.36Q-85.85-2.31-85.85-0.14L-85.85-0.14L-85.85 4.32Q-85.85 5.09-85.77 5.63L-85.77 5.63Q-85.67 6.30-86.34 6.42L-86.34 6.42Q-87.15 6.52-87.27 5.83ZM-87.39 1.08L-87.39 1.08Q-88.36 1.02-88.85 1.02L-88.85 1.02Q-89.78 1.02-90.54 1.19Q-91.30 1.36-91.92 1.96Q-92.55 2.55-92.55 3.53L-92.55 3.53Q-92.55 4.44-92.02 4.91Q-91.48 5.39-90.63 5.39L-90.63 5.39Q-89.19 5.39-88.28 4.32L-88.28 4.32Q-87.25 3.12-87.39 1.08Z"/><path fill="#000000" opacity="1" d="M-76.64-0.44L-76.64-0.44Q-76.68-1.72-77.36-2.45Q-78.03-3.18-79.21-3.18L-79.21-3.18Q-80.46-3.18-81.26-2.18Q-82.06-1.19-82.10 0.04L-82.10 0.04L-77.06 0.04Q-76.62 0.00-76.64-0.44ZM-75.22 3.77L-75.22 3.77Q-75.54 5.13-76.68 5.89Q-77.81 6.64-79.25 6.64L-79.25 6.64Q-80.79 6.64-81.87 5.86Q-82.95 5.07-83.43 3.85Q-83.91 2.64-83.91 1.16L-83.91 1.16Q-83.91-1.21-82.75-2.81Q-81.60-4.41-79.27-4.41L-79.27-4.41Q-77.34-4.41-76.20-3.23Q-75.06-2.04-75.10-0.14L-75.10-0.14Q-75.10 0.53-75.41 0.89Q-75.72 1.26-76.76 1.26L-76.76 1.26L-82.14 1.26Q-82.12 2.98-81.43 4.13Q-80.73 5.29-79.17 5.29L-79.17 5.29Q-78.30 5.29-77.63 4.81Q-76.96 4.34-76.70 3.49L-76.70 3.49Q-76.62 3.22-76.36 3.07Q-76.11 2.92-75.81 2.96L-75.81 2.96Q-75.48 3.00-75.31 3.21Q-75.14 3.43-75.22 3.77Z"/><path fill="#000000" opacity="1" d="M-74.10-4.13L-74.10-4.13L-67.93-4.13Q-67.38-4.13-67.38-3.50L-67.38-3.50Q-67.38-2.85-67.93-2.85L-67.93-2.85L-70.24-2.85L-70.24 5.86Q-70.24 6.56-71.03 6.56Q-71.82 6.56-71.82 5.86L-71.82 5.86L-71.82-2.85L-74.10-2.85Q-74.67-2.85-74.67-3.50L-74.67-3.50Q-74.67-4.13-74.10-4.13Z"/><path fill="#000000" opacity="1" d="M-66.77 1.14L-66.77 1.14Q-66.77-4.33-62.30-4.33L-62.30-4.33Q-61.37-4.33-60.66-4.03Q-59.95-3.72-59.55-3.23Q-59.14-2.73-58.93-2.26Q-58.71-1.78-58.63-1.31L-58.63-1.31Q-58.51-0.54-59.22-0.46L-59.22-0.46Q-59.99-0.42-60.13-1.03L-60.13-1.03Q-60.62-3.05-62.30-3.05L-62.30-3.05Q-63.13-3.05-63.71-2.68Q-64.28-2.31-64.57-1.65Q-64.85-0.99-64.97-0.32Q-65.09 0.35-65.09 1.14Q-65.09 1.93-64.97 2.59Q-64.85 3.26-64.57 3.92Q-64.28 4.58-63.71 4.95Q-63.13 5.33-62.30 5.33L-62.30 5.33Q-60.62 5.33-60.13 3.30L-60.13 3.30Q-59.99 2.68-59.22 2.74L-59.22 2.74Q-58.84 2.76-58.70 2.96Q-58.57 3.16-58.63 3.59L-58.63 3.59Q-58.71 4.05-58.93 4.52Q-59.14 4.98-59.55 5.47Q-59.95 5.96-60.66 6.26Q-61.37 6.56-62.30 6.56L-62.30 6.56Q-66.77 6.56-66.77 1.14Z"/><path fill="#000000" opacity="1" d="M-50.80 5.86L-50.80 2.11L-52.17 2.11Q-54.04 2.11-54.71 4.05L-54.71 4.05Q-55.23 5.57-55.78 6.20L-55.78 6.20Q-56.18 6.67-56.83 6.56L-56.83 6.56Q-57.18 6.50-57.31 6.26Q-57.44 6.02-57.28 5.77L-57.28 5.77Q-56.81 5.13-56.14 3.55L-56.14 3.55Q-55.84 2.82-55.53 2.38Q-55.21 1.95-54.73 1.68L-54.73 1.68Q-55.70 1.50-56.36 0.74Q-57.01-0.02-57.01-0.97L-57.01-0.97Q-57.01-2.49-56.06-3.31Q-55.11-4.13-53.53-4.13L-53.53-4.13L-50.78-4.13Q-49.87-4.13-49.54-3.68Q-49.22-3.24-49.22-2.33L-49.22-2.33L-49.22 5.86Q-49.22 6.56-50.01 6.56Q-50.80 6.56-50.80 5.86L-50.80 5.86ZM-51.34-2.85L-53.37-2.85Q-54.26-2.85-54.78-2.37Q-55.29-1.88-55.29-0.95L-55.29-0.95Q-55.29-0.10-54.68 0.37Q-54.06 0.83-53.19 0.83L-53.19 0.83L-50.80 0.83L-50.80-2.35Q-50.80-2.63-50.91-2.74Q-51.02-2.85-51.34-2.85L-51.34-2.85Z"/><path fill="#000000" opacity="1" d=""/><path fill="#000000" opacity="1" d="M-40.92 1.14L-40.92 1.14Q-40.92-4.33-36.44-4.33L-36.44-4.33Q-35.51-4.33-34.80-4.03Q-34.09-3.72-33.69-3.23Q-33.28-2.73-33.07-2.26Q-32.86-1.78-32.77-1.31L-32.77-1.31Q-32.65-0.54-33.36-0.46L-33.36-0.46Q-34.13-0.42-34.27-1.03L-34.27-1.03Q-34.76-3.05-36.44-3.05L-36.44-3.05Q-37.27-3.05-37.85-2.68Q-38.42-2.31-38.71-1.65Q-38.99-0.99-39.11-0.32Q-39.23 0.35-39.23 1.14Q-39.23 1.93-39.11 2.59Q-38.99 3.26-38.71 3.92Q-38.42 4.58-37.85 4.95Q-37.27 5.33-36.44 5.33L-36.44 5.33Q-34.76 5.33-34.27 3.30L-34.27 3.30Q-34.13 2.68-33.36 2.74L-33.36 2.74Q-32.98 2.76-32.85 2.96Q-32.71 3.16-32.77 3.59L-32.77 3.59Q-32.86 4.05-33.07 4.52Q-33.28 4.98-33.69 5.47Q-34.09 5.96-34.80 6.26Q-35.51 6.56-36.44 6.56L-36.44 6.56Q-40.92 6.56-40.92 1.14Z"/><path fill="#000000" opacity="1" d=""/><path fill="#000000" opacity="1" d="M-22.87-4.13L-18.32-4.13Q-17.77-4.13-17.43-3.99Q-17.08-3.84-16.95-3.52Q-16.82-3.20-16.79-2.95Q-16.76-2.71-16.76-2.24L-16.76-2.24L-16.76 5.86Q-16.76 6.56-17.55 6.56Q-18.34 6.56-18.34 5.86L-18.34 5.86L-18.34-2.35Q-18.34-2.61-18.45-2.73Q-18.56-2.85-18.88-2.85L-18.88-2.85L-22.31-2.85Q-22.63-2.85-22.73-2.73Q-22.83-2.61-22.83-2.35L-22.83-2.35L-22.83 5.86Q-22.83 6.56-23.62 6.56Q-24.41 6.56-24.41 5.86L-24.41 5.86L-24.41-2.24Q-24.41-2.71-24.38-2.94Q-24.35-3.18-24.22-3.51Q-24.09-3.84-23.75-3.99Q-23.42-4.13-22.87-4.13L-22.87-4.13Z"/><path fill="#000000" opacity="1" d="M-12.63-3.64L-12.63-3.64L-12.63-2.51Q-11.43-4.39-9.41-4.39L-9.41-4.39Q-5.46-4.39-5.46 1.12L-5.46 1.12Q-5.46 3.55-6.46 5.09Q-7.46 6.62-9.63 6.62L-9.63 6.62Q-11.41 6.62-12.52 4.98L-12.52 4.98L-12.52 9.44Q-12.52 10.13-13.33 10.13L-13.33 10.13Q-14.12 10.13-14.12 9.44L-14.12 9.44L-14.12-3.64Q-14.12-4.33-13.35-4.33L-13.35-4.33Q-12.63-4.33-12.63-3.64ZM-12.52 0.47L-12.52 1.46Q-12.52 2.88-11.79 4.05Q-11.05 5.23-9.69 5.23L-9.69 5.23Q-7.20 5.23-7.20 1.12Q-7.20-2.99-9.69-2.99L-9.69-2.99Q-11.05-2.99-11.79-1.95Q-12.52-0.91-12.52 0.47L-12.52 0.47Z"/><path fill="#000000" opacity="1" d="M2.74 5.83L2.74 5.83Q2.62 5.23 2.62 4.48L2.62 4.48Q1.59 6.64-0.94 6.64L-0.94 6.64Q-2.38 6.64-3.31 5.80Q-4.24 4.96-4.24 3.47L-4.24 3.47Q-4.24-0.18 1.29-0.18L1.29-0.18Q1.41-0.18 2.62-0.14L2.62-0.14Q2.62-1.37 2.44-1.94L2.44-1.94Q2.04-3.16 0.05-3.16L0.05-3.16Q-1.20-3.16-2.20-2.39L-2.20-2.39Q-2.70-1.96-3.25-2.41L-3.25-2.41Q-3.80-2.89-3.15-3.46L-3.15-3.46Q-2.01-4.41 0.29-4.41L0.29-4.41Q2.36-4.41 3.26-3.36Q4.16-2.31 4.16-0.14L4.16-0.14L4.16 4.32Q4.16 5.09 4.24 5.63L4.24 5.63Q4.34 6.30 3.68 6.42L3.68 6.42Q2.87 6.52 2.74 5.83ZM2.62 1.08L2.62 1.08Q1.65 1.02 1.16 1.02L1.16 1.02Q0.23 1.02-0.53 1.19Q-1.29 1.36-1.91 1.96Q-2.54 2.55-2.54 3.53L-2.54 3.53Q-2.54 4.44-2.00 4.91Q-1.47 5.39-0.62 5.39L-0.62 5.39Q0.82 5.39 1.73 4.32L1.73 4.32Q2.76 3.12 2.62 1.08Z"/><path fill="#000000" opacity="1" d="M8.25-4.13L8.25-4.13L11.27-4.13Q12.81-4.13 13.60-3.47Q14.39-2.81 14.39-1.60L14.39-1.60Q14.39 0.16 12.87 0.75L12.87 0.75Q14.79 1.32 14.79 3.45L14.79 3.45Q14.79 4.70 13.91 5.53Q13.03 6.36 11.73 6.36L11.73 6.36L8.25 6.36Q7.71 6.36 7.36 6.22Q7.02 6.08 6.88 5.75Q6.75 5.43 6.72 5.19Q6.69 4.94 6.69 4.48L6.69 4.48L6.69-2.24Q6.69-2.71 6.72-2.95Q6.75-3.20 6.88-3.52Q7.02-3.84 7.36-3.99Q7.71-4.13 8.25-4.13ZM11.27 1.46L8.29 1.46L8.29 4.56Q8.29 4.84 8.39 4.96Q8.49 5.09 8.82 5.09L8.82 5.09L11.27 5.09Q13.05 5.09 13.05 3.30L13.05 3.30Q13.05 1.46 11.27 1.46L11.27 1.46ZM8.29-2.35L8.29-2.35L8.29 0.23L11.27 0.23Q11.92 0.23 12.34-0.19Q12.77-0.60 12.77-1.37L12.77-1.37Q12.77-2.85 11.27-2.85L11.27-2.85L8.82-2.85Q8.49-2.85 8.39-2.73Q8.29-2.61 8.29-2.35Z"/><path fill="#000000" opacity="1" d="M24.78-3.64L24.78-3.64L24.78 5.86Q24.78 6.56 23.99 6.56Q23.20 6.56 23.20 5.86L23.20 5.86L23.20-1.72Q23.05-1.35 22.33-0.14L22.33-0.14L18.32 6.24Q18.13 6.56 17.61 6.56L17.61 6.56Q16.82 6.56 16.82 5.86L16.82 5.86L16.82-3.64Q16.82-4.33 17.61-4.33L17.61-4.33Q18.42-4.33 18.42-3.64L18.42-3.64L18.42 3.99Q18.70 3.32 19.35 2.27L19.35 2.27L23.30-4.05Q23.48-4.33 23.99-4.33L23.99-4.33Q24.78-4.33 24.78-3.64Z"/><path fill="#000000" opacity="1" d="M29.90-4.13L29.90-4.13L32.92-4.13Q33.36-4.13 33.68-4.01Q33.99-3.89 34.14-3.74Q34.29-3.60 34.36-3.29Q34.44-2.97 34.45-2.80Q34.46-2.63 34.46-2.24L34.46-2.24L34.46 5.88Q34.46 6.56 33.67 6.56Q32.88 6.56 32.88 5.88L32.88 5.88L32.88-2.33Q32.88-2.59 32.77-2.71Q32.67-2.83 32.35-2.83L32.35-2.83L30.41-2.83Q29.80-2.83 29.76-2.22L29.76-2.22Q29.74-1.90 29.66-0.69Q29.58 0.53 29.48 1.63Q29.39 2.74 29.29 3.63L29.29 3.63Q29.11 5.09 28.54 5.84Q27.98 6.60 26.84 6.52L26.84 6.52Q26.46 6.50 26.27 6.32Q26.09 6.14 26.11 5.88L26.11 5.88Q26.15 5.17 26.64 5.17L26.64 5.17Q26.98 5.17 27.20 5.06Q27.41 4.94 27.52 4.71Q27.63 4.48 27.68 4.26Q27.73 4.03 27.77 3.63L27.77 3.63Q27.79 3.51 27.79 3.45L27.79 3.45Q27.96 2.27 28.08 0.23Q28.20-1.82 28.22-1.96L28.22-1.96Q28.24-2.37 28.26-2.56Q28.28-2.75 28.38-3.11Q28.48-3.46 28.64-3.64Q28.81-3.82 29.13-3.98Q29.45-4.13 29.90-4.13Z"/><path fill="#000000" opacity="1" d="M38.69-3.64L38.69-3.64L38.69-0.10L41.64-0.10Q43.14-0.10 44.01 0.78Q44.88 1.66 44.88 3.10L44.88 3.10Q44.88 4.52 43.94 5.44Q43.00 6.36 41.60 6.36L41.60 6.36L38.67 6.36Q38.12 6.36 37.78 6.22Q37.43 6.08 37.30 5.75Q37.17 5.43 37.14 5.19Q37.11 4.94 37.11 4.48L37.11 4.48L37.11-3.64Q37.11-4.33 37.90-4.33Q38.69-4.33 38.69-3.64ZM41.36 1.18L38.69 1.18L38.69 4.56Q38.69 4.84 38.80 4.96Q38.91 5.09 39.23 5.09L39.23 5.09L41.36 5.09Q43.14 5.09 43.14 3.16L43.14 3.16Q43.14 1.18 41.36 1.18L41.36 1.18Z"/><path fill="#000000" opacity="1" d="M48.18-3.64L48.18-3.64L48.18 0.21L52.66 0.21L52.66-3.64Q52.66-4.33 53.45-4.33Q54.24-4.33 54.24-3.64L54.24-3.64L54.24 5.86Q54.24 6.56 53.45 6.56Q52.66 6.56 52.66 5.86L52.66 5.86L52.66 1.48L48.18 1.48L48.18 5.86Q48.18 6.56 47.40 6.56Q46.61 6.56 46.61 5.86L46.61 5.86L46.61-3.64Q46.61-4.33 47.40-4.33Q48.18-4.33 48.18-3.64Z"/><path fill="#000000" opacity="1" d="M56.26 1.14L56.26 1.14Q56.26-4.33 60.76-4.33L60.76-4.33Q65.24-4.33 65.24 1.14L65.24 1.14Q65.24 6.56 60.76 6.56L60.76 6.56Q56.26 6.56 56.26 1.14ZM60.76 5.45Q63.57 5.45 63.57 1.14Q63.57-3.18 60.76-3.18Q57.95-3.18 57.95 1.14Q57.95 5.45 60.76 5.45Z"/><path fill="#000000" opacity="1" d="M68.82-4.13L68.82-4.13L72.69-4.13Q73.25-4.13 73.25-3.50L73.25-3.50Q73.25-2.85 72.69-2.85L72.69-2.85L69.37-2.85Q69.04-2.85 68.94-2.73Q68.84-2.61 68.84-2.35L68.84-2.35L68.84 5.86Q68.84 6.56 68.05 6.56Q67.26 6.56 67.26 5.86L67.26 5.86L67.26-2.24Q67.26-2.71 67.29-2.95Q67.32-3.20 67.45-3.52Q67.58-3.84 67.93-3.99Q68.27-4.13 68.82-4.13Z"/><path fill="#000000" opacity="1" d="M73.56 1.14L73.56 1.14Q73.56-4.33 78.05-4.33L78.05-4.33Q82.53-4.33 82.53 1.14L82.53 1.14Q82.53 6.56 78.05 6.56L78.05 6.56Q73.56 6.56 73.56 1.14ZM78.05 5.45Q80.87 5.45 80.87 1.14Q80.87-3.18 78.05-3.18Q75.24-3.18 75.24 1.14Q75.24 5.45 78.05 5.45Z"/><path fill="#000000" opacity="1" d=""/><path fill="#000000" opacity="1" d="M92.39-4.13L96.95-4.13Q97.49-4.13 97.84-3.99Q98.18-3.84 98.31-3.52Q98.45-3.20 98.48-2.95Q98.51-2.71 98.51-2.24L98.51-2.24L98.51 5.86Q98.51 6.56 97.72 6.56Q96.93 6.56 96.93 5.86L96.93 5.86L96.93-2.35Q96.93-2.61 96.82-2.73Q96.70-2.85 96.38-2.85L96.38-2.85L92.96-2.85Q92.63-2.85 92.53-2.73Q92.43-2.61 92.43-2.35L92.43-2.35L92.43 5.86Q92.43 6.56 91.64 6.56Q90.85 6.56 90.85 5.86L90.85 5.86L90.85-2.24Q90.85-2.71 90.88-2.94Q90.91-3.18 91.04-3.51Q91.18-3.84 91.51-3.99Q91.84-4.13 92.39-4.13L92.39-4.13Z"/><path fill="#000000" opacity="1" d="M102.64-3.64L102.64-3.64L102.64-2.51Q103.83-4.39 105.86-4.39L105.86-4.39Q109.81-4.39 109.81 1.12L109.81 1.12Q109.81 3.55 108.80 5.09Q107.80 6.62 105.63 6.62L105.63 6.62Q103.85 6.62 102.74 4.98L102.74 4.98L102.74 9.44Q102.74 10.13 101.93 10.13L101.93 10.13Q101.14 10.13 101.14 9.44L101.14 9.44L101.14-3.64Q101.14-4.33 101.91-4.33L101.91-4.33Q102.64-4.33 102.64-3.64ZM102.74 0.47L102.74 1.46Q102.74 2.88 103.48 4.05Q104.22 5.23 105.57 5.23L105.57 5.23Q108.06 5.23 108.06 1.12Q108.06-2.99 105.57-2.99L105.57-2.99Q104.22-2.99 103.48-1.95Q102.74-0.91 102.74 0.47L102.74 0.47Z"/><path fill="#000000" opacity="1" d="M111.22 1.14L111.22 1.14Q111.22-4.33 115.72-4.33L115.72-4.33Q120.19-4.33 120.19 1.14L120.19 1.14Q120.19 6.56 115.72 6.56L115.72 6.56Q111.22 6.56 111.22 1.14ZM115.72 5.45Q118.53 5.45 118.53 1.14Q118.53-3.18 115.72-3.18Q112.90-3.18 112.90 1.14Q112.90 5.45 115.72 5.45Z"/><path fill="#000000" opacity="1" d="M121.61 1.14L121.61 1.14Q121.61-4.33 126.09-4.33L126.09-4.33Q127.02-4.33 127.73-4.03Q128.44-3.72 128.84-3.23Q129.25-2.73 129.46-2.26Q129.67-1.78 129.75-1.31L129.75-1.31Q129.87-0.54 129.16-0.46L129.16-0.46Q128.40-0.42 128.25-1.03L128.25-1.03Q127.77-3.05 126.09-3.05L126.09-3.05Q125.26-3.05 124.68-2.68Q124.10-2.31 123.82-1.65Q123.54-0.99 123.41-0.32Q123.29 0.35 123.29 1.14Q123.29 1.93 123.41 2.59Q123.54 3.26 123.82 3.92Q124.10 4.58 124.68 4.95Q125.26 5.33 126.09 5.33L126.09 5.33Q127.77 5.33 128.25 3.30L128.25 3.30Q128.40 2.68 129.16 2.74L129.16 2.74Q129.55 2.76 129.68 2.96Q129.81 3.16 129.75 3.59L129.75 3.59Q129.67 4.05 129.46 4.52Q129.25 4.98 128.84 5.47Q128.44 5.96 127.73 6.26Q127.02 6.56 126.09 6.56L126.09 6.56Q121.61 6.56 121.61 1.14Z"/><path fill="#000000" opacity="1" d="M130.97-4.13L130.97-4.13L137.14-4.13Q137.69-4.13 137.69-3.50L137.69-3.50Q137.69-2.85 137.14-2.85L137.14-2.85L134.83-2.85L134.83 5.86Q134.83 6.56 134.04 6.56Q133.26 6.56 133.26 5.86L133.26 5.86L133.26-2.85L130.97-2.85Q130.40-2.85 130.40-3.50L130.40-3.50Q130.40-4.13 130.97-4.13Z"/><path fill="#000000" opacity="1" d="M140.81-3.64L140.81-3.64L140.81-2.51Q142.00-4.39 144.03-4.39L144.03-4.39Q147.98-4.39 147.98 1.12L147.98 1.12Q147.98 3.55 146.97 5.09Q145.97 6.62 143.81 6.62L143.81 6.62Q142.02 6.62 140.91 4.98L140.91 4.98L140.91 9.44Q140.91 10.13 140.10 10.13L140.10 10.13Q139.31 10.13 139.31 9.44L139.31 9.44L139.31-3.64Q139.31-4.33 140.08-4.33L140.08-4.33Q140.81-4.33 140.81-3.64ZM140.91 0.47L140.91 1.46Q140.91 2.88 141.65 4.05Q142.39 5.23 143.74 5.23L143.74 5.23Q146.24 5.23 146.24 1.12Q146.24-2.99 143.74-2.99L143.74-2.99Q142.39-2.99 141.65-1.95Q140.91-0.91 140.91 0.47L140.91 0.47Z"/><path fill="#000000" opacity="1" d="M156.18 5.83L156.18 5.83Q156.06 5.23 156.06 4.48L156.06 4.48Q155.02 6.64 152.49 6.64L152.49 6.64Q151.05 6.64 150.12 5.80Q149.19 4.96 149.19 3.47L149.19 3.47Q149.19-0.18 154.72-0.18L154.72-0.18Q154.84-0.18 156.06-0.14L156.06-0.14Q156.06-1.37 155.87-1.94L155.87-1.94Q155.47-3.16 153.48-3.16L153.48-3.16Q152.23-3.16 151.24-2.39L151.24-2.39Q150.73-1.96 150.18-2.41L150.18-2.41Q149.64-2.89 150.29-3.46L150.29-3.46Q151.42-4.41 153.73-4.41L153.73-4.41Q155.79-4.41 156.69-3.36Q157.60-2.31 157.60-0.14L157.60-0.14L157.60 4.32Q157.60 5.09 157.68 5.63L157.68 5.63Q157.78 6.30 157.11 6.42L157.11 6.42Q156.30 6.52 156.18 5.83ZM156.06 1.08L156.06 1.08Q155.08 1.02 154.60 1.02L154.60 1.02Q153.67 1.02 152.91 1.19Q152.15 1.36 151.52 1.96Q150.89 2.55 150.89 3.53L150.89 3.53Q150.89 4.44 151.43 4.91Q151.97 5.39 152.82 5.39L152.82 5.39Q154.25 5.39 155.17 4.32L155.17 4.32Q156.20 3.12 156.06 1.08Z"/><path fill="#000000" opacity="1" d="M161.71-3.64L161.71-3.64L161.71 0.21L166.18 0.21L166.18-3.64Q166.18-4.33 166.97-4.33Q167.76-4.33 167.76-3.64L167.76-3.64L167.76 5.86Q167.76 6.56 166.97 6.56Q166.18 6.56 166.18 5.86L166.18 5.86L166.18 1.48L161.71 1.48L161.71 5.86Q161.71 6.56 160.92 6.56Q160.13 6.56 160.13 5.86L160.13 5.86L160.13-3.64Q160.13-4.33 160.92-4.33Q161.71-4.33 161.71-3.64Z"/><path fill="#000000" opacity="1" d="M169.79 1.14L169.79 1.14Q169.79-4.33 174.26-4.33L174.26-4.33Q175.19-4.33 175.90-4.03Q176.61-3.72 177.02-3.23Q177.42-2.73 177.63-2.26Q177.85-1.78 177.93-1.31L177.93-1.31Q178.05-0.54 177.34-0.46L177.34-0.46Q176.57-0.42 176.43-1.03L176.43-1.03Q175.94-3.05 174.26-3.05L174.26-3.05Q173.43-3.05 172.85-2.68Q172.28-2.31 171.99-1.65Q171.71-0.99 171.59-0.32Q171.47 0.35 171.47 1.14Q171.47 1.93 171.59 2.59Q171.71 3.26 171.99 3.92Q172.28 4.58 172.85 4.95Q173.43 5.33 174.26 5.33L174.26 5.33Q175.94 5.33 176.43 3.30L176.43 3.30Q176.57 2.68 177.34 2.74L177.34 2.74Q177.72 2.76 177.86 2.96Q177.99 3.16 177.93 3.59L177.93 3.59Q177.85 4.05 177.63 4.52Q177.42 4.98 177.02 5.47Q176.61 5.96 175.90 6.26Q175.19 6.56 174.26 6.56L174.26 6.56Q169.79 6.56 169.79 1.14Z"/><path fill="#000000" opacity="1" d="M179.14-4.13L179.14-4.13L185.32-4.13Q185.86-4.13 185.86-3.50L185.86-3.50Q185.86-2.85 185.32-2.85L185.32-2.85L183.01-2.85L183.01 5.86Q183.01 6.56 182.22 6.56Q181.43 6.56 181.43 5.86L181.43 5.86L181.43-2.85L179.14-2.85Q178.57-2.85 178.57-3.50L178.57-3.50Q178.57-4.13 179.14-4.13Z"/><path fill="#000000" opacity="1" d="M189.04-4.13L189.04-4.13L192.06-4.13Q193.60-4.13 194.39-3.47Q195.18-2.81 195.18-1.60L195.18-1.60Q195.18 0.16 193.66 0.75L193.66 0.75Q195.58 1.32 195.58 3.45L195.58 3.45Q195.58 4.70 194.70 5.53Q193.82 6.36 192.53 6.36L192.53 6.36L189.04 6.36Q188.50 6.36 188.15 6.22Q187.81 6.08 187.68 5.75Q187.55 5.43 187.52 5.19Q187.48 4.94 187.48 4.48L187.48 4.48L187.48-2.24Q187.48-2.71 187.52-2.95Q187.55-3.20 187.68-3.52Q187.81-3.84 188.15-3.99Q188.50-4.13 189.04-4.13ZM192.06 1.46L189.08 1.46L189.08 4.56Q189.08 4.84 189.19 4.96Q189.29 5.09 189.61 5.09L189.61 5.09L192.06 5.09Q193.84 5.09 193.84 3.30L193.84 3.30Q193.84 1.46 192.06 1.46L192.06 1.46ZM189.08-2.35L189.08-2.35L189.08 0.23L192.06 0.23Q192.71 0.23 193.13-0.19Q193.56-0.60 193.56-1.37L193.56-1.37Q193.56-2.85 192.06-2.85L192.06-2.85L189.61-2.85Q189.29-2.85 189.19-2.73Q189.08-2.61 189.08-2.35Z"/><path fill="#000000" opacity="1" d="M203.79 5.83L203.79 5.83Q203.66 5.23 203.66 4.48L203.66 4.48Q202.63 6.64 200.10 6.64L200.10 6.64Q198.66 6.64 197.73 5.80Q196.80 4.96 196.80 3.47L196.80 3.47Q196.80-0.18 202.33-0.18L202.33-0.18Q202.45-0.18 203.66-0.14L203.66-0.14Q203.66-1.37 203.48-1.94L203.48-1.94Q203.08-3.16 201.09-3.16L201.09-3.16Q199.84-3.16 198.84-2.39L198.84-2.39Q198.34-1.96 197.79-2.41L197.79-2.41Q197.25-2.89 197.89-3.46L197.89-3.46Q199.03-4.41 201.34-4.41L201.34-4.41Q203.40-4.41 204.30-3.36Q205.20-2.31 205.20-0.14L205.20-0.14L205.20 4.32Q205.20 5.09 205.28 5.63L205.28 5.63Q205.39 6.30 204.72 6.42L204.72 6.42Q203.91 6.52 203.79 5.83ZM203.66 1.08L203.66 1.08Q202.69 1.02 202.21 1.02L202.21 1.02Q201.27 1.02 200.52 1.19Q199.76 1.36 199.13 1.96Q198.50 2.55 198.50 3.53L198.50 3.53Q198.50 4.44 199.04 4.91Q199.57 5.39 200.42 5.39L200.42 5.39Q201.86 5.39 202.77 4.32L202.77 4.32Q203.81 3.12 203.66 1.08Z"/></g></svg>